<region>
sample=$SAMPLE_DIR/black_cortex_tom_12_ctr_a_01.wav
pan=$TOM_1_PAN
hivel=12
seq_length=2

<region>
sample=$SAMPLE_DIR/black_cortex_tom_12_ctr_b_01.wav
pan=$TOM_1_PAN
hivel=12
seq_length=2
seq_position=2

<region>
sample=$SAMPLE_DIR/black_cortex_tom_12_ctr_a_02.wav
pan=$TOM_1_PAN
lovel=13
hivel=25
seq_length=2

<region>
sample=$SAMPLE_DIR/black_cortex_tom_12_ctr_b_02.wav
pan=$TOM_1_PAN
lovel=13
hivel=25
seq_length=2
seq_position=2

<region>
sample=$SAMPLE_DIR/black_cortex_tom_12_ctr_a_03.wav
pan=$TOM_1_PAN
lovel=26
hivel=38
seq_length=2

<region>
sample=$SAMPLE_DIR/black_cortex_tom_12_ctr_b_03.wav
pan=$TOM_1_PAN
lovel=26
hivel=38
seq_length=2
seq_position=2

<region>
sample=$SAMPLE_DIR/black_cortex_tom_12_ctr_a_04.wav
pan=$TOM_1_PAN
lovel=39
hivel=50
seq_length=2

<region>
sample=$SAMPLE_DIR/black_cortex_tom_12_ctr_b_04.wav
pan=$TOM_1_PAN
lovel=39
hivel=50
seq_length=2
seq_position=2

<region>
sample=$SAMPLE_DIR/black_cortex_tom_12_ctr_a_05.wav
pan=$TOM_1_PAN
lovel=51
hivel=63
seq_length=2

<region>
sample=$SAMPLE_DIR/black_cortex_tom_12_ctr_b_05.wav
pan=$TOM_1_PAN
lovel=51
hivel=63
seq_length=2
seq_position=2

<region>
sample=$SAMPLE_DIR/black_cortex_tom_12_ctr_a_06.wav
pan=$TOM_1_PAN
lovel=64
hivel=76
seq_length=2

<region>
sample=$SAMPLE_DIR/black_cortex_tom_12_ctr_b_06.wav
pan=$TOM_1_PAN
lovel=64
hivel=76
seq_length=2
seq_position=2

<region>
sample=$SAMPLE_DIR/black_cortex_tom_12_ctr_a_07.wav
pan=$TOM_1_PAN
lovel=77
hivel=88
seq_length=2

<region>
sample=$SAMPLE_DIR/black_cortex_tom_12_ctr_b_07.wav
pan=$TOM_1_PAN
lovel=77
hivel=88
seq_length=2
seq_position=2

<region>
sample=$SAMPLE_DIR/black_cortex_tom_12_ctr_a_08.wav
pan=$TOM_1_PAN
lovel=89
hivel=101
seq_length=2

<region>
sample=$SAMPLE_DIR/black_cortex_tom_12_ctr_b_08.wav
pan=$TOM_1_PAN
lovel=89
hivel=101
seq_length=2
seq_position=2

<region>
sample=$SAMPLE_DIR/black_cortex_tom_12_ctr_a_09.wav
pan=$TOM_1_PAN
lovel=102
hivel=114
seq_length=2

<region>
sample=$SAMPLE_DIR/black_cortex_tom_12_ctr_b_09.wav
pan=$TOM_1_PAN
lovel=102
hivel=114
seq_length=2
seq_position=2

<region>
sample=$SAMPLE_DIR/black_cortex_tom_12_ctr_a_10.wav
pan=$TOM_1_PAN
lovel=115
seq_length=2

<region>
sample=$SAMPLE_DIR/black_cortex_tom_12_ctr_b_10.wav
pan=$TOM_1_PAN
lovel=115
seq_length=2
seq_position=2
